
<svg width="120" height="36" viewBox="0 0 120 36" fill="none" xmlns="http://www.w3.org/2000/svg">
  <rect x="2" y="2" width="32" height="32" rx="8" fill="#0F1F38"/>
  <path d="M10 12H26M10 18H20M10 24H18" stroke="#F47A71" stroke-width="3" stroke-linecap="round"/>
  <path d="M42 12H47.828C49.364 12 50.736 12.44 51.944 13.32C53.176 14.2 53.792 15.608 53.792 17.544C53.792 19.504 53.176 20.924 51.944 21.804C50.736 22.684 49.364 23.124 47.828 23.124H42V12ZM47.612 20.532C48.396 20.532 49.052 20.284 49.58 19.788C50.132 19.268 50.408 18.52 50.408 17.544C50.408 16.592 50.132 15.86 49.58 15.348C49.052 14.836 48.396 14.58 47.612 14.58H45.312V20.532H47.612ZM55.5834 12H58.9674V23.124H55.5834V12ZM66.3585 23.28C65.0385 23.28 63.9185 22.996 62.9985 22.428C62.0785 21.836 61.3825 21.064 60.9105 20.112C60.4385 19.16 60.2025 18.136 60.2025 17.04C60.2025 15.968 60.4385 14.956 60.9105 14.004C61.3825 13.052 62.0785 12.292 62.9985 11.724C63.9185 11.132 65.0385 10.836 66.3585 10.836C68.0305 10.836 69.4425 11.3 70.5945 12.228C71.7465 13.156 72.4665 14.412 72.7545 15.996H69.0025C68.7145 14.788 67.7945 14.184 66.2625 14.184C65.3425 14.184 64.6345 14.512 64.1385 15.168C63.6425 15.8 63.3945 16.636 63.3945 17.676C63.3945 18.76 63.6425 19.584 64.1385 20.148C64.6345 20.712 65.3425 20.994 66.2625 20.994C66.8665 20.994 67.3745 20.856 67.7865 20.58C68.1985 20.28 68.5025 19.872 68.6985 19.356H72.7065C72.3425 20.86 71.5985 22.044 70.4705 22.908C69.3425 23.156 68.0305 23.28 66.3585 23.28ZM75.5327 17.076C75.5327 16.004 75.7567 15.004 76.2047 14.076C76.6767 13.148 77.3247 12.4 78.1487 11.832C78.9967 11.264 79.9527 10.98 81.0167 10.98C82.0327 10.98 82.9047 11.228 83.6327 11.724C84.3847 12.22 84.9167 12.808 85.2287 13.488V11.148H88.6127V23.124H85.2287V20.784C84.8927 21.464 84.3607 22.052 83.6327 22.548C82.9047 23.044 82.0327 23.292 81.0167 23.292C79.9527 23.292 78.9967 23.008 78.1487 22.44C77.3247 21.848 76.6767 21.088 76.2047 20.16C75.7567 19.232 75.5327 18.212 75.5327 17.076ZM85.2287 17.1C85.2287 16.1 84.9767 15.32 84.4727 14.76C83.9927 14.176 83.3887 13.884 82.6607 13.884C81.9327 13.884 81.3167 14.176 80.8127 14.76C80.3327 15.32 80.0927 16.1 80.0927 17.1C80.0927 18.1 80.3327 18.892 80.8127 19.476C81.3167 20.036 81.9327 20.316 82.6607 20.316C83.3887 20.316 83.9927 20.036 84.4727 19.476C84.9767 18.892 85.2287 18.1 85.2287 17.1ZM91.3268 17.052C91.3268 15.98 91.5508 14.992 91.9988 14.088C92.4708 13.16 93.1188 12.424 93.9428 11.88C94.7908 11.336 95.7468 11.064 96.8108 11.064C97.8028 11.064 98.6628 11.312 99.3908 11.808C100.119 12.28 100.651 12.856 100.987 13.536V11.148H104.371V23.124H100.987V20.736C100.651 21.416 100.119 22.004 99.3908 22.5C98.6628 22.972 97.8028 23.208 96.8108 23.208C95.7468 23.208 94.7908 22.936 93.9428 22.392C93.1188 21.848 92.4708 21.112 91.9988 20.184C91.5508 19.256 91.3268 18.168 91.3268 17.052ZM100.987 17.088C100.987 16.088 100.735 15.296 100.231 14.712C99.7508 14.128 99.1468 13.836 98.4188 13.836C97.6908 13.836 97.0748 14.128 96.5708 14.712C96.0908 15.272 95.8508 16.064 95.8508 17.088C95.8508 18.088 96.0908 18.88 96.5708 19.464C97.0748 20.024 97.6908 20.304 98.4188 20.304C99.1468 20.304 99.7508 20.024 100.231 19.464C100.735 18.88 100.987 18.088 100.987 17.088ZM112.29 11.064C114.058 11.064 115.458 11.564 116.49 12.564C117.522 13.564 118.038 14.968 118.038 16.776V23.124H114.75V17.4C114.75 16.4 114.51 15.648 114.03 15.144C113.574 14.64 112.926 14.388 112.086 14.388C111.246 14.388 110.586 14.64 110.106 15.144C109.65 15.648 109.422 16.4 109.422 17.4V23.124H106.038V11.148H109.422V13.08C109.782 12.44 110.31 11.932 111.006 11.556C111.702 11.228 112.458 11.064 113.274 11.064H112.29Z" fill="#ffffff"/>
</svg>
